<!-- Generated by IcoMoon.io -->
<svg version="1.1" xmlns="http://www.w3.org/2000/svg" width="768" height="768" viewBox="0 0 768 768">
<title></title>
<g id="icomoon-ignore">
</g>
<path fill="#000" d="M384.006 9.482c-212.053 0-384.006 171.913-384.006 383.999 0 169.66 110.028 313.599 262.602 364.377 19.19 3.554 26.244-8.332 26.244-18.474 0-9.153-0.36-39.407-0.522-71.493-106.836 23.232-129.378-45.308-129.378-45.308-17.462-44.382-42.636-56.187-42.636-56.187-34.839-23.833 2.632-23.343 2.632-23.343 38.55 2.707 58.857 39.574 58.857 39.574 34.254 58.702 89.832 41.73 111.753 31.918 3.441-24.814 13.389-41.76 24.38-51.348-85.298-9.707-174.957-42.637-174.957-189.774 0-41.923 15.003-76.18 39.57-103.071-3.987-9.675-17.141-48.729 3.714-101.625 0 0 32.255-10.314 105.63 39.368 30.627-8.511 63.477-12.777 96.115-12.925 32.626 0.149 65.502 4.415 96.192 12.925 73.3-49.683 105.492-39.368 105.492-39.368 20.904 52.896 7.762 91.95 3.777 101.625 24.615 26.892 39.52 61.149 39.52 103.071 0 147.49-89.834 179.962-175.342 189.468 13.773 11.917 26.043 35.284 26.043 71.109 0 51.381-0.447 92.733-0.447 105.381 0 10.221 6.916 22.196 26.379 18.424 152.491-50.832 262.381-194.719 262.381-364.326 0-212.085-171.925-383.998-383.994-383.998z"></path>
</svg>
